Coordinates
version=1
nRows=8
nColumns=40
inDegrees=yes

Units are S.I. units (second, meters, Newtons, ...)
If the header above contains a line with 'inDegrees', this indicates whether rotational values are in degrees (yes) or radians (no).

endheader
time	pelvis_tilt	pelvis_list	pelvis_rotation	pelvis_tx	pelvis_ty	pelvis_tz	hip_flexion_r	hip_adduction_r	hip_rotation_r	knee_angle_r	knee_angle_r_beta	ankle_angle_r	subtalar_angle_r	mtp_angle_r	hip_flexion_l	hip_adduction_l	hip_rotation_l	knee_angle_l	knee_angle_l_beta	ankle_angle_l	subtalar_angle_l	mtp_angle_l	lumbar_extension	lumbar_bending	lumbar_rotation	arm_flex_r	arm_add_r	arm_rot_r	elbow_flex_r	pro_sup_r	wrist_flex_r	wrist_dev_r	arm_flex_l	arm_add_l	arm_rot_l	elbow_flex_l	pro_sup_l	wrist_flex_l	wrist_dev_l
      4.98000000	    -12.03580583	      3.33219243	     -4.48221597	     -0.20545399	      0.98818380	     -0.88648867	     22.50247084	    -13.27647027	    -12.92007169	     21.28442546	      0.37148330	    -21.25340872	      0.00000000	      0.00000000	     18.43212134	    -10.89011080	    -17.29951312	     18.91736793	      0.33017036	    -23.55463630	      0.00000000	      0.00000000	    -11.39227077	     -3.58009850	     -4.41810400	    -39.19663011	    -48.14319492	      2.64430745	    128.65951974	     87.80232753	      0.00000000	      0.00000000	    -64.39475035	    -21.44801310	    -16.46670350	    128.36175573	     88.32821149	      0.00000000	      0.00000000
      4.98500000	    -11.62979330	      3.65442298	     -4.63853760	     -0.20052213	      1.00182720	     -0.88582787	     20.07257983	    -13.08976338	    -13.42694375	     17.06811016	      0.29789472	    -26.11524015	      0.00000000	      0.00000000	     15.69597092	     -9.66403144	    -16.92567071	     13.74152190	      0.23983480	    -29.61862128	      0.00000000	      0.00000000	    -11.18304941	     -3.91468335	     -2.85915922	    -43.06980334	    -45.97910227	     -0.58993004	    129.20473352	     87.87083082	      0.00000000	      0.00000000	    -64.24655716	    -22.72406994	    -15.92961231	    128.65820698	     88.31968998	      0.00000000	      0.00000000
      4.99000000	    -11.17098387	      3.83199137	     -4.67957850	     -0.19568388	      1.01560714	     -0.88525509	     17.52542763	    -12.78136147	    -14.06742755	     12.70753860	      0.22178839	    -31.01018093	      0.00000000	      0.00000000	     13.03041719	     -8.63756199	    -16.34517640	      8.80642013	      0.15370103	    -35.08287821	      0.00000000	      0.00000000	    -11.01862702	     -4.22760719	     -2.68415052	    -44.19082367	    -45.37593797	     -1.11314949	    129.04786145	     87.89215084	      0.00000000	      0.00000000	    -65.04954936	    -22.29140174	    -16.23068623	    129.00569512	     88.32806211	      0.00000000	      0.00000000
      4.99500000	    -10.77928978	      3.82445497	     -4.77252244	     -0.18964730	      1.02897976	     -0.88469288	     14.98322290	    -12.23324445	    -14.80273280	      8.47035478	      0.14783558	    -34.78882246	      0.00000000	      0.00000000	     10.54467299	     -7.94323980	    -16.52059535	      4.52439129	      0.07896552	    -37.88319591	      0.00000000	      0.00000000	    -10.64528217	     -4.30365553	     -2.39327980	    -45.43565224	    -44.73176085	     -1.61231725	    128.88649880	     87.89992461	      0.00000000	      0.00000000	    -65.79140903	    -21.88280508	    -16.30980234	    129.13103142	     88.34152079	      0.00000000	      0.00000000
      5.00000000	    -10.42675772	      3.84814564	     -4.85628687	     -0.18509703	      1.04273942	     -0.88377265	     12.88245687	    -11.71704199	    -15.70172802	      4.94765156	      0.08635281	    -36.80750535	      0.00000000	      0.00000000	      8.68932299	     -7.35628135	    -16.84802161	      1.50441880	      0.02625706	    -38.81045344	      0.00000000	      0.00000000	    -10.42111990	     -4.45255547	     -2.14344022	    -46.20137252	    -43.95109351	     -1.98490661	    128.59730769	     87.89512308	      0.00000000	      0.00000000	    -66.36031557	    -21.60133337	    -16.48609463	    129.15951678	     88.33999875	      0.00000000	      0.00000000
      5.00500000	    -10.31108911	      3.81301758	     -4.76133303	     -0.18113718	      1.05639780	     -0.88300060	     11.16417152	    -11.11568545	    -16.78680226	      1.98133792	      0.03458087	    -36.91821899	      0.00000000	      0.00000000	      8.03690698	     -7.13505514	    -18.21096149	      0.55945151	      0.00976427	    -38.63244287	      0.00000000	      0.00000000	    -10.01310446	     -4.48561367	     -2.00884904	    -46.79986109	    -43.08911296	     -2.19784527	    128.30263435	     87.86503303	      0.00000000	      0.00000000	    -66.60377321	    -21.63293789	    -16.52148127	    129.04323949	     88.32289458	      0.00000000	      0.00000000
      5.01000000	    -10.38202752	      3.83788273	     -4.51374393	     -0.17823265	      1.07001196	     -0.88252800	     10.37437206	    -10.76773537	    -19.08922006	      0.74431174	      0.01299069	    -35.68099711	      0.00000000	      0.00000000	      7.94695184	     -6.86538909	    -20.11959818	      0.33455101	      0.00583902	    -37.88628420	      0.00000000	      0.00000000	     -9.53027675	     -4.51947769	     -2.06167465	    -47.04489441	    -42.21696966	     -2.29384630	    127.89779302	     87.85246878	      0.00000000	      0.00000000	    -66.56898496	    -21.88598672	    -16.38870550	    128.71759949	     88.30607022	      0.00000000	      0.00000000
      5.01500000	    -10.39495021	      3.87961579	     -4.49967604	     -0.17510591	      1.08321285	     -0.88190596	      9.91631546	    -10.48100000	    -22.13270114	      0.50961773	      0.00889451	    -34.06784117	      0.00000000	      0.00000000	      7.66763041	     -6.53290568	    -22.69241307	      0.28623855	      0.00499581	    -36.57556495	      0.00000000	      0.00000000	     -9.06520806	     -4.59382042	     -1.86804369	    -47.35065722	    -41.32512015	     -2.56449302	    127.66290644	     87.90132509	      0.00000000	      0.00000000	    -66.44721909	    -22.16200504	    -16.29287398	    128.33437162	     88.32867124	      0.00000000	      0.00000000
